# xmcd
#
# Track frame offsets:
#	150
#	11424
#	22312
#	32457
#	50361
#	67985
#	75866
#	88907
#	105052
#	124566
#	136326
#	155112
#	168621
#	176622
#	186152
#	201045
#	218792
#	233708
#	246581
#	260627
#	277107
#	287356
#
# Disc length: 3911 seconds
#
# Revision: 0
# Processed by: cddbd v1.5.2PL0 Copyright (c) Steve Scherf et al.
# Submitted via: audiograbber 1.83.01
#
DISCID=300f4516
DTITLE=Willie Nelson and Leon Russell - Riding the North East Trail, Passaic NJ 4
DTITLE=1-79 (FM)[CD2]
DYEAR=1979
DGENRE=Country
TTITLE0=Come In My Kitchen
TTITLE1=Detour
TTITLE2=Will the Circle Be Unbroken
TTITLE3=Amazing Grace
TTITLE4=Uncloudy Day
TTITLE5=Instrumental
TTITLE6=One for My Baby and One for the Road
TTITLE7=Blue Skies
TTITLE8=Georgia On My Mind
TTITLE9=All of Me
TTITLE10=Stardust
TTITLE11=Mama Don't Let Your Babys
TTITLE12=I Can Get Off on You
TTITLE13=Willie and Waylon
TTITLE14=Whiskey River
TTITLE15=Instrumental
TTITLE16=Good Hearted Woman
TTITLE17=Sioux City Sue
TTITLE18=White Lightning
TTITLE19=One Night of Love
TTITLE20=Truck Drivin' Man
TTITLE21=Whiskey River (Reprise)
EXTD=
EXTT0=
EXTT1=
EXTT2=
EXTT3=
EXTT4=
EXTT5=
EXTT6=
EXTT7=
EXTT8=
EXTT9=
EXTT10=
EXTT11=
EXTT12=
EXTT13=
EXTT14=
EXTT15=
EXTT16=
EXTT17=
EXTT18=
EXTT19=
EXTT20=
EXTT21=
PLAYORDER=
